<?xml version="1.0" encoding="iso-8859-1"?>
<!-- Uploaded to: SVG Repo, www.svgrepo.com, Generator: SVG Repo Mixer Tools -->
<svg height="800px" width="800px" version="1.1" id="Layer_1" xmlns="http://www.w3.org/2000/svg" xmlns:xlink="http://www.w3.org/1999/xlink" 
	 viewBox="0 0 512 512" xml:space="preserve">
<g transform="translate(-1)">
	<path style="fill:#E4F4F9;" d="M47.786,466.979l129.766-263.945V52.966h158.897v150.069l129.766,263.945
		c9.71,21.186-6.179,45.021-29.131,45.021H76.917C53.966,512,38.076,488.165,47.786,466.979"/>
	<path style="fill:#B0D3F0;" d="M345.276,52.966H168.724c-15.007,0-26.483-11.476-26.483-26.483S153.717,0,168.724,0h176.552
		c15.007,0,26.483,11.476,26.483,26.483S360.283,52.966,345.276,52.966"/>
	<g>
		<path style="fill:#90BAE1;" d="M248.172,256h-52.966c-5.297,0-8.828-3.531-8.828-8.828s3.531-8.828,8.828-8.828h52.966
			c5.297,0,8.828,3.531,8.828,8.828S253.469,256,248.172,256z"/>
		<path style="fill:#90BAE1;" d="M212.862,326.621h-52.966c-5.297,0-8.828-3.531-8.828-8.828s3.531-8.828,8.828-8.828h52.966
			c5.297,0,8.828,3.531,8.828,8.828S218.159,326.621,212.862,326.621z"/>
		<path style="fill:#90BAE1;" d="M204.034,291.31h-26.483c-5.297,0-8.828-3.531-8.828-8.828s3.531-8.828,8.828-8.828h26.483
			c5.297,0,8.828,3.531,8.828,8.828C212.862,287.779,209.331,291.31,204.034,291.31z"/>
	</g>
	<path style="fill:#B0D3F0;" d="M466.214,466.979l-19.421-38.841c-14.124-4.414-28.248-11.476-39.724-22.069
		c-37.959-37.959-92.69-62.676-132.414-26.483l0,0c-39.724,36.193-94.455,11.476-132.414-26.483
		c-8.828-7.945-19.421-14.124-30.014-18.538L47.786,466.979C38.076,488.165,53.966,512,76.917,512H436.2
		C460.034,512,475.924,488.165,466.214,466.979"/>
</g>
</svg>